<svg viewBox="0 0 200 80" xmlns="http://www.w3.org/2000/svg">
  <!-- Background circle for logo mark -->
  <circle cx="40" cy="40" r="35" fill="#16a34a" opacity="0.1"/>

  <!-- Apple shape -->
  <path d="M25 45 C25 35, 35 25, 45 25 C55 25, 65 35, 65 45 C65 55, 55 65, 45 65 C35 65, 25 55, 25 45 Z" fill="#16a34a"/>

  <!-- Apple leaf -->
  <ellipse cx="48" cy="28" rx="8" ry="4" fill="#15803d" transform="rotate(25 48 28)"/>

  <!-- Apple stem -->
  <rect x="44" y="22" width="2" height="6" fill="#15803d"/>

  <!-- Heart symbol overlay -->
  <path d="M40 38 C37 35, 32 35, 32 40 C32 43, 40 50, 40 50 C40 50, 48 43, 48 40 C48 35, 43 35, 40 38 Z" fill="white" opacity="0.9"/>

  <!-- Text -->
  <text x="90" y="35" font-family="system-ui, -apple-system, sans-serif" font-size="18" font-weight="600" fill="#16a34a">NutriCare</text>
  <text x="90" y="52" font-family="system-ui, -apple-system, sans-serif" font-size="12" font-weight="400" fill="#15803d">Dietética Profesional</text>

  <!-- Decorative leaves -->
  <ellipse cx="175" cy="25" rx="4" ry="2" fill="#22c55e" opacity="0.6" transform="rotate(15 175 25)"/>
  <ellipse cx="185" cy="30" rx="3" ry="1.5" fill="#22c55e" opacity="0.4" transform="rotate(-10 185 30)"/>
  <ellipse cx="180" cy="55" rx="4" ry="2" fill="#22c55e" opacity="0.5" transform="rotate(25 180 55)"/>
  <ellipse cx="170" cy="60" rx="3" ry="1.5" fill="#22c55e" opacity="0.3" transform="rotate(-15 170 60)"/>
</svg>